<?xml version="1.0" encoding="UTF-8"?>
<svg id="Ebene_2" data-name="Ebene 2" xmlns="http://www.w3.org/2000/svg" viewBox="0 0 210.25 197.16">
  <defs>
    <style>
      .cls-1 {
        fill: #014080;
      }
    </style>
  </defs>
  <g id="Ebene_1-2" data-name="Ebene 1">
    <g>
      <path class="cls-1" d="M54.17,117.89c-8.51-8.46-13.19-19.7-13.19-31.66s4.69-23.2,13.19-31.66l-4.93-4.96c-9.84,9.78-15.26,22.79-15.26,36.62s5.42,26.84,15.26,36.62c10.15,10.09,23.48,15.13,36.82,15.13s26.67-5.04,36.82-15.13l-4.93-4.96c-17.58,17.47-46.19,17.47-63.77,0Z"/>
      <path class="cls-1" d="M210.25,186.76l-51.82-46.71c11.06-14.64,17.63-32.82,17.63-52.5C176.06,39.27,136.57,0,88.03,0S0,39.27,0,87.55s39.49,87.55,88.03,87.55c23.71,0,45.26-9.37,61.1-24.59l51.74,46.65,9.38-10.4ZM88.03,161.1c-40.82,0-74.03-32.99-74.03-73.55S47.21,14,88.03,14s74.03,32.99,74.03,73.55-33.21,73.55-74.03,73.55Z"/>
    </g>
  </g>
</svg>