<?xml version="1.0" encoding="UTF-8"?>
<svg id="Ebene_2" data-name="Ebene 2" xmlns="http://www.w3.org/2000/svg" viewBox="0 0 211.32 185.27">
  <defs>
    <style>
      .cls-1 {
        fill: #014080;
      }
    </style>
  </defs>
  <g id="Ebene_1-2" data-name="Ebene 1">
    <path class="cls-1" d="M210.54,65.51c0-16.13-13.24-29.25-29.52-29.25h-33.47v-7c0-16.13-13.24-29.25-29.52-29.25H30.29C14.02,0,.78,13.12.78,29.21l-.78,119.8,41.51-37.37h22.25v7.01c0,16.13,13.24,29.25,29.52,29.25h76.53l41.51,37.37-.78-119.76ZM36.52,98.64l-23.33,21,.58-90.39c0-8.96,7.41-16.25,16.52-16.25h87.75c9.11,0,16.52,7.29,16.52,16.25v7h-41.28c-16.28,0-29.52,13.12-29.52,29.25v33.13h-27.24ZM134.55,49.26v33.14c0,8.96-7.41,16.25-16.52,16.25h-41.28v-33.13c0-8.96,7.41-16.25,16.52-16.25h41.28ZM174.8,134.9h-81.52c-9.11,0-16.52-7.29-16.52-16.25v-7.01h41.28c16.28,0,29.52-13.12,29.52-29.25v-33.14h33.47c9.11,0,16.52,7.29,16.52,16.29l.59,90.35-23.33-21Z"/>
  </g>
</svg>