<?xml version="1.0" encoding="UTF-8"?>
<svg id="Ebene_2" data-name="Ebene 2" xmlns="http://www.w3.org/2000/svg" viewBox="0 0 199.7 192.54">
  <defs>
    <style>
      .cls-1 {
        fill: #014080;
      }
    </style>
  </defs>
  <g id="Ebene_1-2" data-name="Ebene 1">
    <path class="cls-1" d="M199.7,87.83c0-6.19-1.77-22.82-19.6-30.88,4.19-11.33.93-24.25-8.71-32.32-7.02-5.88-18.64-9.41-30.98-3.15C135.39,7.71,125.92,0,113.57,0c-5.57,0-10.04,1.46-13.33,4.3-3.29-2.84-7.74-4.3-13.3-4.3-12.63,0-22.24,8.1-27.15,22.53-9.56-3.15-21.62-1.84-31.47,7.02-8.31,7.48-11.07,17.78-7.7,27.38C1.83,64.7,0,81.77,0,88.04c0,13.04,7.62,24.71,19.04,30.4-2.24,4.57-3.43,9.61-3.43,14.77,0,16.98,12.72,31.1,29.3,33.66,3.87,14.75,17.68,25.64,33.62,25.64,9.53,0,16.98-3.74,21.81-10.56,4.76,6.43,12,10.1,21.35,10.55.64.03,1.38.05,2.2.05,7.01,0,19.98-1.56,27.83-12.01,2.93-3.9,4.72-8.53,5.42-13.84,15.71-3.67,26.88-17.38,26.88-33.47,0-5.15-1.17-10.18-3.39-14.76,11.44-5.78,19.07-17.51,19.07-30.63ZM78.53,179.49c-11.2,0-20.7-8.47-21.63-19.28l-.62-6.1-6.02.16c-11.94-.03-21.65-9.47-21.65-21.07,0-5.07,1.89-9.98,5.33-13.81l7.62-8.5-11.2-2.21c-10.05-1.99-17.35-10.67-17.35-20.64,0-14.35,10.48-21.96,30.31-22.04.3.03.64.05,1.01.08,6.18.44,19.05,1.35,23.06,21.3l12.74-2.56c-2.51-12.47-8.24-21.45-17.04-26.69-7.16-4.26-14.38-4.77-17.85-5.02-.39-.03-.72-.05-1-.08l-.64-.03c-3.75,0-7.18.23-10.31.65-3.21-7.07,1.45-12.39,3.72-14.43,5.71-5.14,15.75-7.62,23.11-2.09l8.32,6.26,1.97-10.22c1.45-7.53,5.53-20.17,16.52-20.17,1.7,0,3.94.22,4.96,1.25,1.28,1.31,1.72,4.53,1.84,8.28-.05,1.96-.03,3.96,0,6.01,0,.41-.01.81-.02,1.21-.03,1.79-.07,3.63-.07,5.5v85.52c-.2.27-.39.55-.61.82-2.73,3.31-6.58,5.36-10.85,5.77-4.26.42-8.44-.86-11.75-3.59-3.31-2.73-5.36-6.58-5.77-10.85l-6.97.67c.59,6.13,3.53,11.66,8.28,15.58,4.17,3.44,9.29,5.27,14.62,5.27.75,0,1.5-.04,2.25-.11,3.93-.38,7.61-1.74,10.79-3.91v28.02c0,13.98-5.08,21.07-15.11,21.07ZM168.99,108.4l-11.56,2.29,7.87,8.78c3.42,3.82,5.31,8.7,5.31,13.76,0,8.87-5.65,16.57-13.9,19.61-.67-4-1.77-8.25-3.32-12.76l-12.29,4.22c4.43,12.91,4.52,22.74.25,28.43-5.18,6.89-15.87,6.93-19.01,6.78-3.83-.19-15.49-.75-15.49-21.08v-73.26c2.6-2.95,6.27-4.98,10.49-5.38,4.27-.41,8.44.87,11.75,3.59s5.36,6.58,5.77,10.85l6.97-.67c-1.22-12.65-12.5-21.96-25.16-20.74-3.6.35-6.92,1.51-9.82,3.28v-40.86c0-1.87-.03-3.71-.07-5.5,0-.4-.02-.8-.02-1.21.04-2.04.05-4.05,0-6,.12-3.75.56-6.97,1.84-8.27,1.02-1.04,3.28-1.26,5-1.26,11.04,0,15.13,12.64,16.59,20.17l2.14,11.08,8.51-7.41c7.65-6.66,15.96-7.5,22.23-2.24,4.84,4.06,7.68,11.57,4.49,18.74-3.55-.56-7.46-.89-11.83-.89v13.42c20,0,30.58,7.6,30.58,21.97,0,9.94-7.27,18.59-17.29,20.57Z"/>
  </g>
</svg>