<?xml version="1.0" encoding="UTF-8"?>
<svg id="Ebene_2" data-name="Ebene 2" xmlns="http://www.w3.org/2000/svg" viewBox="0 0 163.5 124.79">
  <defs>
    <style>
      .cls-1 {
        fill: #014080;
      }
    </style>
  </defs>
  <g id="Ebene_1-2" data-name="Ebene 1">
    <path class="cls-1" d="M162.5,27h-37.89C116.82,11.03,100.42,0,81.48,0c-26.2,0-47.54,21.12-47.93,47.22H0v77.22h77.22v-28.74c1.41.12,2.83.2,4.27.2,15.66,0,29.59-7.55,38.35-19.2v38.08h-13v10h36v-10h-13V37h23.67v22.32h10V27h-1ZM67.22,83.11c-11.08-4.51-19.57-14.11-22.54-25.89h22.54v25.89ZM67.22,114.44H10v-57.22h24.44c3.41,17.32,16.16,31.33,32.78,36.52v20.7ZM81.48,85.9c-1.44,0-2.86-.09-4.27-.25v-38.44h-33.67c.39-20.59,17.25-37.22,37.93-37.22,13.19,0,24.82,6.76,31.62,17h-26.61v32.32h10v-22.32h21.32c1.05,3.47,1.62,7.14,1.62,10.95,0,20.93-17.02,37.95-37.95,37.95Z"/>
  </g>
</svg>