<?xml version="1.0" encoding="UTF-8"?>
<svg id="Ebene_2" data-name="Ebene 2" xmlns="http://www.w3.org/2000/svg" viewBox="0 0 135.53 194.72">
  <defs>
    <style>
      .cls-1 {
        fill: #014080;
      }
    </style>
  </defs>
  <g id="Ebene_1-2" data-name="Ebene 1">
    <g>
      <path class="cls-1" d="M75.46,111.41c-2.46,5.6-4.18,10.48-5.7,14.79-4.21,11.96-6.05,16.15-13.6,17.06l.84,6.95c12.25-1.48,15.23-9.95,19.36-21.68,1.48-4.19,3.15-8.95,5.5-14.31,2.32-5.29,5.97-10.13,9.5-14.81,5.79-7.68,11.77-15.63,11.77-25.59,0-23.42-13.95-39.15-34.71-39.15-10.56,0-20.17,3.94-27.05,11.1-5.34,5.55-8.39,12.48-8.15,18.53.24,6.15,4.81,11.83,9.22,17.32,3.98,4.95,8.1,10.07,7.93,14.3-.34,8.53-6.75,15.2-17.16,17.86l1.73,6.78c13.36-3.41,21.95-12.75,22.42-24.36.27-6.86-4.68-13.02-9.47-18.97-3.7-4.6-7.53-9.37-7.68-13.21-.16-4.12,2.21-9.26,6.2-13.41,3.21-3.34,10.35-8.96,22-8.96,13.4,0,27.71,8.45,27.71,32.15,0,7.62-5.03,14.3-10.36,21.38-3.77,5-7.66,10.17-10.31,16.21Z"/>
      <path class="cls-1" d="M67.76,0C30.4,0,0,30.27,0,67.48h13c0-30.04,24.57-54.48,54.76-54.48s54.76,24.44,54.76,54.48c0,13.37-9.92,30.01-18.67,44.69-5.71,9.58-11.11,18.63-13.52,26.37-11.32,36.31-17.27,43.17-37.42,43.17-9.96,0-18.34-3.83-23.6-10.79-5.88-7.78-7.26-18.62-3.88-30.52l-12.51-3.55c-4.52,15.92-2.38,30.8,6.01,41.91,7.66,10.14,20.04,15.95,33.97,15.95,30.22,0,38.75-16.75,49.83-52.3,1.96-6.27,6.97-14.68,12.28-23.58,9.61-16.12,20.51-34.39,20.51-51.34C135.53,30.27,105.13,0,67.76,0Z"/>
    </g>
  </g>
</svg>