<?xml version="1.0" encoding="UTF-8"?>
<svg id="Ebene_2" data-name="Ebene 2" xmlns="http://www.w3.org/2000/svg" viewBox="0 0 155.32 234.47">
  <defs>
    <style>
      .cls-1 {
        fill: #014080;
      }
    </style>
  </defs>
  <g id="Ebene_1-2" data-name="Ebene 1">
    <g>
      <path class="cls-1" d="M155.32,61.21L85.49,0,15.37,61.46l10.95,3.5c.37.12,3.59,1.13,8.98,2.42v97.33l4.31,1.54c.48.17,7.69,2.71,19.48,4.62.93,1.26,2.77,4.26,2.17,7.54-.59,3.19-1.29,3.66-8.31,5.58-7.32,2-17.35,4.73-27.75,15.86l9.5,8.88c7.88-8.43,15.21-10.43,21.68-12.19,6.93-1.89,15.54-4.24,17.67-15.76.55-2.99.38-5.74-.15-8.2,3.66.26,7.55.41,11.64.41,26.82,0,45.16-6.45,45.92-6.73l4.31-1.54v-97.18c5.5-1.39,8.74-2.51,9.09-2.64l10.47-3.7ZM85.49,17.29l43.82,38.41c-9.6,2.2-24.69,4.79-42.62,4.79s-34.56-2.71-44.83-4.96l43.63-38.25ZM122.76,122.47c-9.34,2.1-21.8,4.02-36.17,4.02-15.1,0-28.65-2.15-38.29-4.26v-23.88c9.9,2.08,23.35,4.1,38.29,4.1s26.61-1.8,36.17-3.86v23.86ZM85.53,159.99c-17.2,0-30.69-2.93-37.23-4.68v-25.91c9.9,2.08,23.35,4.1,38.29,4.1s26.61-1.8,36.17-3.86v25.67c-6.54,1.75-20.04,4.68-37.23,4.68ZM122.76,91.44c-9.34,2.1-21.8,4.02-36.17,4.02-15.1,0-28.65-2.15-38.29-4.26v-21.13c10.34,1.81,23.64,3.42,38.39,3.42s26.41-1.46,36.07-3.17v21.13Z"/>
      <rect class="cls-1" x="10.87" y="177.13" width="7" height="19.75" transform="translate(-157.98 113.03) rotate(-62.38)"/>
      <rect class="cls-1" x="40.95" y="214.19" width="7" height="19.67" transform="translate(-73.24 28.29) rotate(-19.79)"/>
      <rect class="cls-1" x="13.2" y="220.53" width="19.8" height="7" transform="translate(-176.58 119.86) rotate(-56.56)"/>
      <rect class="cls-1" x=".6" y="204.07" width="19.69" height="7" transform="translate(-76.21 18.66) rotate(-21.76)"/>
    </g>
  </g>
</svg>