<?xml version="1.0" encoding="UTF-8"?>
<svg id="Ebene_2" data-name="Ebene 2" xmlns="http://www.w3.org/2000/svg" viewBox="0 0 16.88 16.88">
  <defs>
    <style>
      .cls-1 {
        fill: #014080;
      }
    </style>
  </defs>
  <g id="Ebene_1-2" data-name="Ebene 1">
    <path class="cls-1" d="M12.94,16.88H3.94c-2.17,0-3.94-1.77-3.94-3.94V3.94C0,1.77,1.77,0,3.94,0h9.01c2.17,0,3.94,1.77,3.94,3.94v9.01c0,2.17-1.77,3.94-3.94,3.94ZM3.94,1.78c-1.19,0-2.16.97-2.16,2.16v9.01c0,1.19.97,2.16,2.16,2.16h9.01c1.19,0,2.16-.97,2.16-2.16V3.94c0-1.19-.97-2.16-2.16-2.16H3.94Z"/>
    <g id="Gruppe_40" data-name="Gruppe 40">
      <g id="Gruppe_34" data-name="Gruppe 34">
        <path id="Pfad_33" data-name="Pfad 33" class="cls-1" d="M10.99,8.42c.02-1.41-1.11-2.56-2.52-2.58-1.41-.02-2.56,1.11-2.58,2.52s1.11,2.56,2.52,2.58c0,0,.01,0,.02,0,1.4,0,2.54-1.12,2.55-2.52M12.49,8.44c0,2.24-1.81,4.05-4.05,4.05s-4.05-1.81-4.05-4.05c0-2.24,1.81-4.05,4.05-4.05,0,0,.02,0,.03,0,2.22.02,4.02,1.82,4.02,4.04"/>
      </g>
    </g>
    <circle class="cls-1" cx="12.85" cy="3.97" r="1.04"/>
  </g>
</svg>