<?xml version="1.0" encoding="UTF-8"?>
<svg id="Ebene_2" data-name="Ebene 2" xmlns="http://www.w3.org/2000/svg" viewBox="0 0 17.35 17.34">
  <defs>
    <style>
      .cls-1 {
        fill: #014080;
      }
    </style>
  </defs>
  <g id="Ebene_1-2" data-name="Ebene 1">
    <g>
      <rect id="Rechteck_16" data-name="Rechteck 16" class="cls-1" x="0" y="4.82" width="3.85" height="12.52"/>
      <g id="Gruppe_21" data-name="Gruppe 21">
        <path id="Pfad_27" data-name="Pfad 27" class="cls-1" d="M13.1,5.01c-1.47-.04-2.86.69-3.66,1.93h-.1l-.19-1.64h-3.46c0,1.06.1,2.31.1,3.76v8.28h3.85v-6.84c-.02-.32.01-.65.1-.96.22-.85.95-1.47,1.83-1.54,1.35,0,1.93,1.15,1.93,2.7v6.65h3.85v-7.13c0-3.56-1.83-5.2-4.24-5.2"/>
        <path id="Pfad_28" data-name="Pfad 28" class="cls-1" d="M1.93,0C.85.01-.01.9,0,1.98c0,.02,0,.03,0,.05.01,1.02.85,1.84,1.87,1.83.02,0,.04,0,.06,0,1,.06,1.86-.7,1.93-1.7,0-.07,0-.15,0-.22C3.88.89,3.07.03,2.04,0c-.04,0-.07,0-.11,0"/>
      </g>
    </g>
  </g>
</svg>