<?xml version="1.0" encoding="UTF-8"?>
<svg id="Ebene_2" data-name="Ebene 2" xmlns="http://www.w3.org/2000/svg" viewBox="0 0 184 136.87">
  <defs>
    <style>
      .cls-1 {
        fill: #014080;
      }
    </style>
  </defs>
  <g id="Ebene_1-2" data-name="Ebene 1">
    <path class="cls-1" d="M121.6,136.87H17c-9.37,0-17-7.63-17-17V52.64c0-9.37,7.63-17,17-17h104.6c9.37,0,17,7.63,17,17v67.23c0,9.37-7.63,17-17,17ZM17,45.64c-3.86,0-7,3.14-7,7v67.23c0,3.86,3.14,7,7,7h104.6c3.86,0,7-3.14,7-7V52.64c0-3.86-3.14-7-7-7H17Z"/>
    <path class="cls-1" d="M103.83,92.57V0l80.17,46.28-80.17,46.28ZM113.83,17.32v57.93l50.17-28.96-50.17-28.96Z"/>
    <path class="cls-1" d="M69.73,112.11c-14.26,0-25.85-11.6-25.85-25.85s11.6-25.85,25.85-25.85,25.85,11.6,25.85,25.85-11.6,25.85-25.85,25.85ZM69.73,70.4c-8.74,0-15.85,7.11-15.85,15.85s7.11,15.85,15.85,15.85,15.85-7.11,15.85-15.85-7.11-15.85-15.85-15.85Z"/>
  </g>
</svg>