<?xml version="1.0" encoding="UTF-8"?>
<svg id="Ebene_1" xmlns="http://www.w3.org/2000/svg" xmlns:xlink="http://www.w3.org/1999/xlink" version="1.1" viewBox="0 0 251.6 82.3">
  <!-- Generator: Adobe Illustrator 29.3.1, SVG Export Plug-In . SVG Version: 2.1.0 Build 151)  -->
  <defs>
    <style>
      .st0 {
        fill: #fff;
      }
    </style>
  </defs>
  <path class="st0" d="M128.7,46.7c0,6.1,0,14-7.5,14s-8.8-4.6-8.8-9.6v-21.8h-6.8v23.5c0,7.9,4,14.1,13.5,14.1s7.8-2.9,9.5-6.4h.1v5.5h6.8V29.3h-6.8v17.4Z"/>
  <path class="st0" d="M143.7,28.6v37.4h6.8v-30.8h6.1v-5.9h-6.1v-.7c0-4.4,1.1-6.8,6.3-6.8v-5.3c-10.6,0-13.1,5.8-13.1,12.1Z"/>
  <path class="st0" d="M170.6,19.2h-6.8v35.2c0,6.8,2.7,11.9,12.6,11.9v-6.6c-4.2,0-5.8-2.1-5.8-6.2v-18.3h6.6v-5.9h-6.6v-10.1Z"/>
  <path class="st0" d="M226,19.2h-6.8v35.2c0,6.8,2.7,11.9,12.6,11.9v-6.6c-4.2,0-5.8-2.1-5.8-6.2v-18.3h6.6v-5.9h-6.6v-10.1Z"/>
  <path class="st0" d="M251.6,35.2v-5.9h-6.6v-10.1h-6.8v35.2c0,6.8,2.7,11.9,12.6,11.9v-6.6c-4.2,0-5.8-2.1-5.8-6.2v-18.3s6.6,0,6.6,0Z"/>
  <path class="st0" d="M191.2,36.7h-.2v-7.4h-6.8v36.7h6.8v-19.4c0-6.7,2.7-9.9,8.9-10.2v-7.4c-4.6.6-7.5,3.7-8.7,7.7Z"/>
  <rect class="st0" x="205.5" y="29.3" width="6.8" height="36.7"/>
  <rect class="st0" x="205.5" y="19.4" width="6.8" height="5.8"/>
  <path class="st0" d="M20.7,8.7v22.6L0,38.8v27.2l44.6,16.2,44.7-16.2V16.3L44.7,0l-24,8.7ZM27.3,15.8l34.7,12.6v15.5l-34.7-12.6v-15.5ZM41.4,74.1L6.6,61.4v-15.5l34.7,12.6v15.6h.1ZM13,41.1l11-4,31.7,11.5-11,4-31.7-11.5ZM82.7,61.4l-34.7,12.6v-15.5l20.6-7.5v-22.6l14.1-5.1v38.1ZM65.3,22.6l-31.6-11.6,11-4,31.7,11.5s-11.1,4.1-11.1,4.1Z"/>
</svg>