<?xml version="1.0" encoding="UTF-8"?>
<svg id="Ebene_1" data-name="Ebene 1" xmlns="http://www.w3.org/2000/svg" viewBox="0 0 251.6 82.2">
  <defs>
    <style>
      .cls-1 {
        fill: #023e7c;
      }
    </style>
  </defs>
  <path class="cls-1" d="m128.7,46.7c0,6.1,0,14-7.5,14-6.6,0-8.8-4.6-8.8-9.6v-21.8h-6.8v23.5c0,7.9,4,14.1,13.5,14.1,5.3,0,7.8-2.9,9.5-6.4h.1v5.5h6.8V29.3h-6.8v17.4Z"/>
  <path class="cls-1" d="m143.7,28.6v37.4h6.8v-30.8h6.1v-5.9h-6.1v-.7c0-4.4,1.1-6.8,6.3-6.8v-5.3c-10.6,0-13.1,5.8-13.1,12.1Z"/>
  <path class="cls-1" d="m170.6,19.2h-6.8v35.2c0,6.8,2.7,11.9,12.6,11.9l-.1-6.6c-4.1,0-5.7-2.1-5.7-6.2v-18.3h6.6v-5.9h-6.6v-10.1Z"/>
  <path class="cls-1" d="m226,19.2h-6.8v35.2c0,6.8,2.7,11.9,12.6,11.9l-.1-6.6c-4.1,0-5.7-2.1-5.7-6.2v-18.3h6.6v-5.9h-6.6v-10.1Z"/>
  <path class="cls-1" d="m251.6,35.2v-5.9h-6.6v-10.1h-6.8v35.2c0,6.8,2.7,11.9,12.6,11.9l-.1-6.6c-4.1,0-5.7-2.1-5.7-6.2v-18.3h6.6Z"/>
  <path class="cls-1" d="m191.2,36.7h-.2v-7.4h-6.8v36.7h6.8v-19.4c0-6.7,2.7-9.9,8.9-10.2v-7.4c-4.6.6-7.5,3.7-8.7,7.7Z"/>
  <rect class="cls-1" x="205.5" y="29.3" width="6.8" height="36.7"/>
  <rect class="cls-1" x="205.5" y="19.4" width="6.8" height="5.8"/>
  <path class="cls-1" d="m20.7,8.7v22.6L0,38.8v27.2l44.6,16.2,44.7-16.2V16.3L44.7,0l-24,8.7Zm6.6,7.1l34.7,12.6v15.5l-34.7-12.6v-15.5Zm14.1,58.3L6.6,61.4v-15.5l34.7,12.6v15.6h.1ZM13,41.1l11-4,31.7,11.5-11,4-31.7-11.5Zm69.7,20.3l-34.7,12.6v-15.5l20.6-7.5v-22.6l14.1-5.1v38.1Zm-17.4-38.8l-31.6-11.6,11-4,31.7,11.5-11.1,4.1Z"/>
</svg>